<?xml version="1.0" encoding="UTF-8" standalone="no"?>
<!-- Created with Inkscape (http://www.inkscape.org/) -->

<svg
   width="38mm"
   height="38mm"
   viewBox="0 0 38 38"
   version="1.1"
   id="svg1"
   xml:space="preserve"
   xmlns:xlink="http://www.w3.org/1999/xlink"
   xmlns="http://www.w3.org/2000/svg"
   xmlns:svg="http://www.w3.org/2000/svg"><defs
     id="defs1"><linearGradient
       id="linearGradient126"><stop
         style="stop-color:#0000ff;stop-opacity:1;"
         offset="0"
         id="stop126" /><stop
         style="stop-color:#0000ff;stop-opacity:0.4181667;"
         offset="1"
         id="stop127" /></linearGradient><linearGradient
       xlink:href="#linearGradient126"
       id="linearGradient127"
       x1="134.07167"
       y1="177.47476"
       x2="105.20174"
       y2="188.5383"
       gradientUnits="userSpaceOnUse" /></defs><g
     id="layer1"
     transform="translate(-105.20908,-156.95325)"><g
       id="g128"
       transform="matrix(1.0398377,0,0,1.0387851,-4.1912833,-4.087434)"><path
         style="fill:#ff0000"
         d="m 107.76812,189.06633 c 0.0852,-0.33959 0.94361,-2.27436 1.90751,-4.29948 0.9639,-2.02512 2.02892,-4.27734 2.36671,-5.00495 0.66751,-1.43782 2.53844,-5.39124 4.82068,-10.18646 0.79648,-1.67349 1.77927,-3.75708 2.18398,-4.6302 4.41236,-9.51942 4.10558,-9.20067 5.66584,-5.88698 0.6338,1.34606 1.83422,3.87614 2.6676,5.62239 0.83339,1.74625 2.10669,4.42516 2.82956,5.95313 0.72287,1.52797 1.61857,3.40714 1.99045,4.17595 0.37189,0.7688 0.60936,1.46461 0.52773,1.54624 -0.0816,0.0816 0.25966,0.78634 0.75842,1.56603 0.49876,0.77968 0.90683,1.46928 0.90683,1.53244 0,0.13283 3.20528,6.95607 3.97811,8.4684 0.89694,1.75519 0.88832,1.76094 -2.64261,1.76094 h -3.16243 l -1.07091,-2.25408 c -0.589,-1.23974 -1.07091,-2.30164 -1.07091,-2.35977 0,-0.0581 -0.54536,-1.27621 -1.21191,-2.70685 -0.66655,-1.43065 -1.37127,-2.95836 -1.56604,-3.39493 -0.19477,-0.43656 -1.02926,-2.2225 -1.85442,-3.96875 -0.82517,-1.74625 -1.68119,-3.62148 -1.90228,-4.16719 -0.61172,-1.50989 -0.51053,-1.64702 -3.26993,4.43178 -0.46241,1.01864 -1.52826,3.34036 -2.36857,5.15937 -0.84032,1.81901 -1.79464,3.90261 -2.12072,4.63021 -0.32608,0.7276 -0.93293,2.06706 -1.34855,2.97656 l -0.75568,1.65365 h -3.20671 -3.20672 z"
         id="path125" /><path
         style="fill:url(#linearGradient127);fill-opacity:1"
         d="m 105.26923,188.46901 c -0.54876,-0.66122 2.74658,-3.61871 6.23774,-5.59822 2.18279,-1.23766 6.14034,-3.1726 7.67292,-3.75148 0.87312,-0.32979 1.82562,-0.70782 2.11667,-0.84007 1.38548,-0.62955 8.00601,-2.12232 10.9802,-2.47577 0.80037,-0.0951 2.08053,-0.30418 2.84481,-0.46458 1.0149,-0.213 1.56317,-0.21256 2.03329,0.002 0.43071,0.19624 0.92906,0.21143 1.50622,0.0459 1.0578,-0.30338 2.83255,0.11764 3.06656,0.72747 0.22373,0.58304 -1.05831,1.56553 -2.30245,1.76447 -0.54088,0.0865 -1.28799,0.39684 -1.66026,0.68966 -0.46489,0.36569 -1.07803,0.53326 -1.95802,0.53514 -2.8012,0.006 -10.24368,1.64561 -16.23015,3.57558 -4.79462,1.54573 -8.72946,3.26726 -11.50937,5.03544 -1.77993,1.13213 -2.35604,1.28754 -2.79816,0.75481 z"
         id="path126" /></g></g></svg>
