<?xml version="1.0" encoding="UTF-8" standalone="no"?>
<!-- Created with Inkscape (http://www.inkscape.org/) -->

<svg
   width="178"
   height="178"
   viewBox="0 0 178 178"
   version="1.1"
   id="svg1"
   xmlns="http://www.w3.org/2000/svg"
   xmlns:svg="http://www.w3.org/2000/svg">
  <defs
     id="defs1" />
  <g
     id="layer1"
     transform="translate(-0.72682081,-12.396116)">
    <path
       style="fill:#ffffff;stroke-width:0.512373"
       d="m 10.853229,184.56913 c 0,-0.16325 1.253143,-3.06984 2.784761,-6.45907 1.531621,-3.38925 2.784764,-6.31541 2.784764,-6.5026 0,-0.18718 -0.854417,0.18739 -1.898702,0.83236 -1.044285,0.64499 -4.279086,2.43902 -7.188444,3.98677 -4.9387811,2.62734 -5.3334977,2.75277 -5.9492648,1.89039 -0.3627379,-0.50799 -0.65952239,-1.27732 -0.65952239,-1.7096 0,-1.58261 10.14085819,-10.67583 19.37800519,-17.37609 2.455447,-1.78107 3.700544,-3.09753 4.385718,-4.63707 0.526244,-1.18243 2.590102,-5.64976 4.586346,-9.92738 1.996244,-4.27762 5.232136,-11.39403 7.190878,-15.81424 1.958741,-4.42021 5.560531,-12.23658 8.003979,-17.36972 2.443451,-5.13316 6.266956,-13.29952 8.496679,-18.147486 7.871732,-17.1151 12.937029,-28.082169 16.377055,-35.458636 1.913359,-4.102818 3.478836,-7.521015 3.478836,-7.595984 0,-0.07498 1.773686,-3.951189 3.941522,-8.613806 2.16784,-4.662628 5.528543,-11.917975 7.468226,-16.122982 1.939689,-4.205029 3.688281,-7.646562 3.885763,-7.647869 0.197473,-0.0011 1.025441,1.455898 1.839909,3.238239 0.814468,1.782342 3.697766,8.023777 6.407331,13.869858 5.395482,11.64117 7.993002,17.270018 10.886792,23.591723 1.04432,2.281397 2.93049,6.364579 4.19148,9.07374 4.97159,10.681234 20.74785,44.963093 21.54495,46.817293 0.79432,1.84772 0.95319,1.94943 2.61777,1.67589 0.97466,-0.16017 2.91133,-0.40419 4.30372,-0.54226 1.39238,-0.13807 3.32905,-0.35551 4.30372,-0.48317 6.45369,-0.8454 6.58217,-0.88226 6.58217,-1.88847 0,-1.3281 0.31994,-1.27696 5.34966,0.85519 l 4.34887,1.84351 4.22764,-1.06575 c 2.3252,-0.58619 5.16971,-1.06578 6.32113,-1.06578 1.97065,0 7.23503,2.08624 7.85451,3.1127 0.3258,0.53983 -2.32884,3.74246 -4.28365,5.16789 -0.75872,0.55325 -3.75102,1.50137 -6.64956,2.10692 -5.33598,1.11477 -6.40977,1.64428 -10.9785,5.41367 -2.08329,1.71881 -3.429,1.92738 -3.75627,0.58222 -0.12097,-0.4973 -1.41401,-0.45231 -5.83794,0.20309 -3.12541,0.46302 -5.80829,0.97066 -5.96198,1.12804 -0.34359,0.35184 0.58132,2.54428 5.51167,13.06498 2.11993,4.52364 3.85442,8.29052 3.85442,8.37084 0,0.0803 1.93667,4.27175 4.30372,9.31428 2.36705,5.04252 4.30372,9.2381 4.30372,9.32347 0,0.0855 1.25314,2.84475 2.78476,6.13191 1.53162,3.28719 2.78477,6.23266 2.78477,6.54553 0,0.86946 -29.07568,0.79194 -29.72757,-0.0792 -0.26674,-0.35646 -1.98392,-4.03132 -3.81596,-8.16637 -1.83202,-4.13502 -5.99026,-13.46802 -9.24052,-20.73996 -3.25025,-7.27194 -6.45655,-14.44668 -7.12508,-15.94385 -0.66852,-1.49718 -1.49378,-2.72214 -1.83391,-2.72214 -1.12672,0 -17.155581,4.10872 -27.496113,7.04815 -2.506287,0.71243 -5.696106,1.616 -7.088486,2.00795 -1.39238,0.39192 -6.632798,2.14373 -11.645369,3.89291 -5.012571,1.74917 -9.828478,3.40477 -10.702017,3.67907 -1.410827,0.44305 -1.886085,1.17355 -4.254408,6.5394 -1.466386,3.32235 -4.564545,10.26007 -6.884799,15.41719 l -4.218645,9.37654 -14.94427,0.13733 c -8.219342,0.0755 -14.944264,0.004 -14.944264,-0.15949 z m 58.959678,-51.85807 c 6.054027,-2.49637 20.289347,-7.14692 28.633742,-9.35438 4.037921,-1.06819 7.518701,-2.09486 7.735091,-2.28147 0.21639,-0.1866 -2.2525,-6.15441 -5.48641,-13.26179 -3.233932,-7.1074 -6.934298,-15.372438 -8.223038,-18.366776 -1.28875,-2.994328 -2.84501,-6.4942 -3.458366,-7.777486 l -1.115197,-2.333248 -1.873097,4.147995 c -6.656666,14.7413 -14.133186,31.386045 -16.186604,36.035705 -1.322378,2.99433 -3.196421,7.19418 -4.164546,9.33299 -2.895019,6.39578 -2.872584,6.29376 -1.294717,5.88821 0.745765,-0.19167 3.190679,-1.10506 5.433142,-2.02975 z"
       id="path1" />
  </g>
</svg>
